<svg width="16" height="16" viewBox="0 0 16 16" fill="none" xmlns="http://www.w3.org/2000/svg">
<rect width="16" height="16" fill="white"/>
<g id="&#235;&#148;&#148;&#236;&#158;&#144;&#236;&#157;&#184;">
<path d="M-4476 -2430C-4476 -2431.1 -4475.1 -2432 -4474 -2432H4874C4875.1 -2432 4876 -2431.1 4876 -2430V9341C4876 9342.1 4875.1 9343 4874 9343H-4474C-4475.1 9343 -4476 9342.1 -4476 9341V-2430Z" fill="#BFBFBF"/>
<path d="M-4474 -2431H4874V-2433H-4474V-2431ZM4875 -2430V9341H4877V-2430H4875ZM4874 9342H-4474V9344H4874V9342ZM-4475 9341V-2430H-4477V9341H-4475ZM-4474 9342C-4474.55 9342 -4475 9341.55 -4475 9341H-4477C-4477 9342.66 -4475.66 9344 -4474 9344V9342ZM4875 9341C4875 9341.55 4874.55 9342 4874 9342V9344C4875.66 9344 4877 9342.66 4877 9341H4875ZM4874 -2431C4874.55 -2431 4875 -2430.55 4875 -2430H4877C4877 -2431.66 4875.66 -2433 4874 -2433V-2431ZM-4474 -2433C-4475.66 -2433 -4477 -2431.66 -4477 -2430H-4475C-4475 -2430.55 -4474.55 -2431 -4474 -2431V-2433Z" fill="black" fill-opacity="0.1"/>
<g id="&#237;&#154;&#140;&#236;&#155;&#144;&#234;&#176;&#128;&#236;&#158;&#133;">
<rect width="375" height="1200" transform="translate(-64 -1021)" fill="white"/>
<path id="Vector" d="M7.59494 4C5.49873 4 3.79747 5.792 3.79747 8C3.79747 10.208 5.49873 12 7.59494 12C9.69114 12 11.3924 10.208 11.3924 8C11.3924 5.792 9.69114 4 7.59494 4ZM7.59494 0C3.40253 0 0 3.584 0 8C0 12.416 3.40253 16 7.59494 16C11.7873 16 15.1899 12.416 15.1899 8C15.1899 3.584 11.7873 0 7.59494 0ZM7.59494 14.4C4.23797 14.4 1.51899 11.536 1.51899 8C1.51899 4.464 4.23797 1.6 7.59494 1.6C10.9519 1.6 13.6709 4.464 13.6709 8C13.6709 11.536 10.9519 14.4 7.59494 14.4Z" fill="black"/>
</g>
</g>
</svg>
