<svg width="30" height="27" viewBox="0 0 30 27" fill="none" xmlns="http://www.w3.org/2000/svg">
<path d="M9.6 27C10.7046 27 11.6 26.1046 11.6 25V19.4706C11.6 18.366 12.4954 17.4706 13.6 17.4706H16.4C17.5046 17.4706 18.4 18.366 18.4 19.4706V25C18.4 26.1046 19.2954 27 20.4 27H24.9C26.0046 27 26.9 26.1046 26.9 25V15.6566C26.9 14.9041 27.51 14.2941 28.2625 14.2941C29.5338 14.2941 30.1124 12.707 29.1393 11.8888L16.2871 1.08226C15.5431 0.456635 14.4569 0.456635 13.7129 1.08226L0.860656 11.8888C-0.112423 12.707 0.466162 14.2941 1.73751 14.2941C2.48999 14.2941 3.1 14.9041 3.1 15.6566V25C3.1 26.1046 3.99543 27 5.1 27H9.6Z" fill="#7AB2D3"/>
</svg>
