<svg width="120" height="45" viewBox="0 0 120 45" fill="none" xmlns="http://www.w3.org/2000/svg">
<rect width="120" height="45" rx="11.3605" fill="#7AB2D3"/>
<path d="M53.853 19.5862H57.351V20.7125H53.853V19.5862ZM53.853 23.389H57.351V24.5152H53.853V23.389ZM51.68 17.877C53.4688 17.877 54.7408 19.5332 54.7408 22.1435C54.7408 24.7537 53.4688 26.4232 51.68 26.4232C49.8913 26.4232 48.6193 24.7537 48.6193 22.1435C48.6193 19.5332 49.8913 17.877 51.68 17.877ZM51.68 19.1357C50.6465 19.1357 49.931 20.262 49.931 22.1435C49.931 24.0382 50.6465 25.1777 51.68 25.1777C52.7268 25.1777 53.429 24.0382 53.429 22.1435C53.429 20.262 52.7268 19.1357 51.68 19.1357ZM57.086 16.976H58.464V29.113H57.086V16.976ZM63.551 17.6517H64.7038V18.8177C64.7038 21.2027 63.4848 23.2167 61.272 23.9985L60.5433 22.8722C62.491 22.223 63.551 20.5932 63.551 18.8177V17.6517ZM63.816 17.6517H64.9423V18.7647C64.9423 20.4342 65.9493 21.9447 67.791 22.5542L67.049 23.6407C64.9688 22.8855 63.816 21.0305 63.816 18.7647V17.6517ZM69.2485 16.9892H70.6398V24.1177H69.2485V16.9892ZM66.5985 24.4622C69.1293 24.4622 70.6795 25.3102 70.6795 26.7677C70.6795 28.2385 69.1293 29.0865 66.5985 29.0865C64.0678 29.0865 62.5175 28.2385 62.5175 26.7677C62.5175 25.3102 64.0678 24.4622 66.5985 24.4622ZM66.5985 25.5487C64.8893 25.5487 63.8955 25.986 63.8955 26.7677C63.8955 27.5628 64.8893 28 66.5985 28C68.321 28 69.3015 27.5628 69.3015 26.7677C69.3015 25.986 68.321 25.5487 66.5985 25.5487ZM66.7973 19.3875H69.487V20.527H66.7973V19.3875Z" fill="white"/>
</svg>
