<svg width="78" height="29" viewBox="0 0 78 29" fill="none" xmlns="http://www.w3.org/2000/svg">
<rect width="78" height="29" rx="11.3605" fill="#F1F1F1"/>
<path d="M28.0712 14.76H29.1312V16.77H28.0712V14.76ZM28.6112 10.76C30.0412 10.76 31.0812 11.66 31.0812 12.95C31.0812 14.24 30.0412 15.14 28.6112 15.14C27.1812 15.14 26.1212 14.24 26.1212 12.95C26.1212 11.66 27.1812 10.76 28.6112 10.76ZM28.6112 11.66C27.7712 11.66 27.1512 12.16 27.1512 12.95C27.1512 13.74 27.7712 14.25 28.6112 14.25C29.4412 14.25 30.0612 13.74 30.0612 12.95C30.0612 12.16 29.4412 11.66 28.6112 11.66ZM32.1312 10.18H33.1812V19.34H32.1312V10.18ZM25.8312 17.42L25.7012 16.57C27.3412 16.57 29.6112 16.55 31.5812 16.26L31.6612 17.02C29.6412 17.41 27.4412 17.42 25.8312 17.42ZM35.8904 10.6H41.7304V11.45H35.8904V10.6ZM34.8604 13.82H43.1404V14.67H34.8604V13.82ZM38.4604 14.41H39.5004V16.45H38.4604V14.41ZM41.0804 10.6H42.1104V11.3C42.1104 12.07 42.1104 12.99 41.8104 14.22L40.7904 14.11C41.0804 12.91 41.0804 12.05 41.0804 11.3V10.6ZM35.7104 16.16H42.1504V19.33H41.1004V17H35.7104V16.16ZM46.5196 10.86C47.8696 10.86 48.8296 12.11 48.8296 14.08C48.8296 16.05 47.8696 17.31 46.5196 17.31C45.1696 17.31 44.2096 16.05 44.2096 14.08C44.2096 12.11 45.1696 10.86 46.5196 10.86ZM46.5196 11.81C45.7396 11.81 45.2096 12.66 45.2096 14.08C45.2096 15.51 45.7396 16.37 46.5196 16.37C47.3096 16.37 47.8396 15.51 47.8396 14.08C47.8396 12.66 47.3096 11.81 46.5196 11.81ZM50.5996 10.18H51.6396V19.34H50.5996V10.18ZM48.5096 13.59H51.0496V14.43H48.5096V13.59Z" fill="#222222"/>
</svg>
