<svg width="282" height="50" viewBox="0 0 282 50" fill="none" xmlns="http://www.w3.org/2000/svg">
<rect x="0.473354" y="0.473354" width="281.053" height="49.0533" rx="10.8871" fill="#7AB2D3"/>
<rect x="0.473354" y="0.473354" width="281.053" height="49.0533" rx="10.8871" stroke="#7AB2D3" stroke-width="0.946708"/>
<rect x="0.473354" y="0.473354" width="281.053" height="49.0533" rx="10.8871" stroke="#7AB2D3" stroke-opacity="0.2" stroke-width="0.946708"/>
<path d="M93.8957 16.5043V33.0717H92.2131V24.5846H90.0867V32.2211H88.441V16.8371H90.0867V23.1423H92.2131V16.5043H93.8957ZM82.2468 18.4643V27.3027C83.7815 27.2934 85.4548 27.1732 87.3316 26.8034L87.5165 28.3381C85.2422 28.7449 83.3377 28.8559 81.5626 28.8559H80.4902V18.4643H82.2468ZM115.012 16.5043V33.0717H113.329V24.5661H111.351V32.2581H109.687V16.8186H111.351V23.0869H113.329V16.5043H115.012ZM105.73 20.8865C105.73 23.8635 106.857 26.5631 109.261 27.8019L108.226 29.1517C106.599 28.2734 105.508 26.7295 104.916 24.8065C104.352 26.9883 103.252 28.7264 101.569 29.7249L100.478 28.3936C102.901 27.0253 104.028 24.1778 104.028 20.8865V19.8141H100.922V18.3903H108.614V19.8141H105.73V20.8865ZM130.451 20.979V22.4027H119.08V16.8001H120.818V20.979H130.451ZM132.189 24.1593V25.6016H117.064V24.1593H132.189ZM124.608 26.9514C128.177 26.9514 130.322 28.0423 130.322 29.9653C130.322 31.9068 128.177 32.9977 124.608 32.9977C121.021 32.9977 118.858 31.9068 118.858 29.9653C118.858 28.0423 121.021 26.9514 124.608 26.9514ZM124.608 28.3197C122.075 28.3381 120.633 28.8929 120.633 29.9653C120.633 31.0192 122.075 31.6479 124.608 31.6479C127.104 31.6479 128.565 31.0192 128.565 29.9653C128.565 28.8929 127.104 28.3381 124.608 28.3197ZM153.213 29.5215V30.9638H138.051V29.5215H144.689V25.5831H146.427V29.5215H153.213ZM146.464 18.8156C146.464 21.4412 149.348 23.9004 152.547 24.4367L151.789 25.8789C149.108 25.3427 146.64 23.6878 145.539 21.4042C144.448 23.6786 142.008 25.3612 139.345 25.8789L138.569 24.4367C141.749 23.9004 144.615 21.4412 144.615 18.8156V17.5582H146.464V18.8156ZM168.597 16.5043V33.0717H166.914V24.4736H164.862V32.2766H163.216V16.9481H164.862V23.0499H166.914V16.5043H168.597ZM161.571 18.6122C161.552 22.9759 160.11 26.8774 155.376 29.5585L154.359 28.3381C158.039 26.258 159.592 23.4382 159.869 20.0544H155.062V18.6122H161.571ZM183.685 16.5043V23.2163H186.348V24.677H183.685V33.0717H181.947V16.5043H183.685ZM180.505 19.0929V20.5352H170.686V19.0929H174.773V16.7262H176.529V19.0929H180.505ZM175.66 21.7556C178.027 21.7556 179.765 23.3457 179.784 25.6016C179.765 27.8759 178.027 29.4476 175.66 29.4661C173.275 29.4476 171.537 27.8759 171.537 25.6016C171.537 23.3457 173.275 21.7556 175.66 21.7556ZM175.66 23.1978C174.255 23.1978 173.201 24.1778 173.22 25.6016C173.201 27.0438 174.255 28.0053 175.66 27.9868C177.066 28.0053 178.101 27.0438 178.101 25.6016C178.101 24.1778 177.066 23.1978 175.66 23.1978ZM200.918 16.5043V33.0717H199.143V16.5043H200.918ZM195.981 18.2794C195.981 23.1238 193.91 27.3397 188.234 30.0577L187.309 28.634C191.719 26.5353 193.864 23.5491 194.206 19.6846H188.104V18.2794H195.981Z" fill="white"/>
</svg>
