<svg width="282" height="50" viewBox="0 0 282 50" fill="none" xmlns="http://www.w3.org/2000/svg">
<rect x="0.473354" y="0.473354" width="281.053" height="49.0533" rx="10.8871" fill="#7AB2D3"/>
<rect x="0.473354" y="0.473354" width="281.053" height="49.0533" rx="10.8871" stroke="#7AB2D3" stroke-width="0.946708"/>
<rect x="0.473354" y="0.473354" width="281.053" height="49.0533" rx="10.8871" stroke="#7AB2D3" stroke-opacity="0.2" stroke-width="0.946708"/>
<path d="M132.226 29.614V31.0932H117.064V29.614H123.739V26.711H118.913V21.4412H128.639V19.1114H118.876V17.6692H130.377V22.8465H120.651V25.2687H130.766V26.711H125.477V29.614H132.226ZM146.556 18.1869V19.962C146.556 22.1069 146.556 24.4367 145.946 27.9683L144.153 27.8019C144.818 24.4921 144.818 22.0514 144.818 19.962V19.6292H135.055V18.1869H146.556ZM148.535 29.2627V30.7234H133.428V29.2627H148.535ZM163.531 16.5228V28.56H161.774V16.5228H163.531ZM164.03 31.2966V32.7204H152.695V27.3397H154.47V31.2966H164.03ZM154.544 17.6322C157.04 17.6322 158.945 19.3333 158.945 21.7371C158.945 24.1778 157.04 25.8604 154.544 25.8604C152.048 25.8604 150.125 24.1778 150.125 21.7371C150.125 19.3333 152.048 17.6322 154.544 17.6322ZM154.544 19.1669C152.991 19.1669 151.845 20.2209 151.845 21.7371C151.845 23.2903 152.991 24.3257 154.544 24.3257C156.06 24.3257 157.225 23.2903 157.225 21.7371C157.225 20.2209 156.06 19.1669 154.544 19.1669Z" fill="white"/>
</svg>
