<svg width="120" height="45" viewBox="0 0 120 45" fill="none" xmlns="http://www.w3.org/2000/svg">
<rect width="120" height="45" rx="11.3605" fill="#7AB2D3"/>
<path d="M56.4765 16.9892H57.8678V23.8262H56.4765V16.9892ZM57.4968 19.6657H59.577V20.8052H57.4968V19.6657ZM50.1298 24.4357H57.8678V28.954H50.1298V24.4357ZM56.5163 25.5355H51.4945V27.841H56.5163V25.5355ZM48.9505 17.5855H50.3418V22.4747H48.9505V17.5855ZM48.9505 21.8917H49.931C51.627 21.8917 53.429 21.7725 55.3768 21.3882L55.5358 22.5145C53.535 22.9252 51.6933 23.0445 49.931 23.0445H48.9505V21.8917ZM63.551 17.6517H64.7038V18.8177C64.7038 21.2027 63.4848 23.2167 61.272 23.9985L60.5433 22.8722C62.491 22.223 63.551 20.5932 63.551 18.8177V17.6517ZM63.816 17.6517H64.9423V18.7647C64.9423 20.4342 65.9493 21.9447 67.791 22.5542L67.049 23.6407C64.9688 22.8855 63.816 21.0305 63.816 18.7647V17.6517ZM69.2485 16.9892H70.6398V24.1177H69.2485V16.9892ZM66.5985 24.4622C69.1293 24.4622 70.6795 25.3102 70.6795 26.7677C70.6795 28.2385 69.1293 29.0865 66.5985 29.0865C64.0678 29.0865 62.5175 28.2385 62.5175 26.7677C62.5175 25.3102 64.0678 24.4622 66.5985 24.4622ZM66.5985 25.5487C64.8893 25.5487 63.8955 25.986 63.8955 26.7677C63.8955 27.5628 64.8893 28 66.5985 28C68.321 28 69.3015 27.5628 69.3015 26.7677C69.3015 25.986 68.321 25.5487 66.5985 25.5487ZM66.7973 19.3875H69.487V20.527H66.7973V19.3875Z" fill="white"/>
</svg>
