<svg width="95" height="95" viewBox="0 0 95 95" fill="none" xmlns="http://www.w3.org/2000/svg">
<g filter="url(#filter0_d_96_6251)">
<path d="M23.1546 67.6877C26.5192 65.1148 30.2796 63.0861 34.4359 61.6018C38.5921 60.1174 42.9463 59.3752 47.4984 59.3752C52.0505 59.3752 56.4046 60.1174 60.5609 61.6018C64.7171 63.0861 68.4775 65.1148 71.8421 67.6877C74.1511 64.9828 75.9489 61.9151 77.2354 58.4846C78.5218 55.054 79.165 51.3926 79.165 47.5002C79.165 38.7259 76.0808 31.2545 69.9124 25.0861C63.744 18.9177 56.2727 15.8335 47.4984 15.8335C38.7241 15.8335 31.2527 18.9177 25.0843 25.0861C18.9159 31.2545 15.8317 38.7259 15.8317 47.5002C15.8317 51.3926 16.4749 55.054 17.7614 58.4846C19.0479 61.9151 20.8456 64.9828 23.1546 67.6877ZM47.4984 51.4585C43.606 51.4585 40.3239 50.1226 37.652 47.4507C34.9801 44.7789 33.6442 41.4967 33.6442 37.6044C33.6442 33.712 34.9801 30.4299 37.652 27.758C40.3239 25.0861 43.606 23.7502 47.4984 23.7502C51.3907 23.7502 54.6729 25.0861 57.3447 27.758C60.0166 30.4299 61.3525 33.712 61.3525 37.6044C61.3525 41.4967 60.0166 44.7789 57.3447 47.4507C54.6729 50.1226 51.3907 51.4585 47.4984 51.4585ZM47.4984 87.0835C42.0227 87.0835 36.8768 86.0445 32.0609 83.9663C27.2449 81.8882 23.0557 79.0679 19.4932 75.5054C15.9307 71.9429 13.1104 67.7537 11.0322 62.9377C8.9541 58.1217 7.91504 52.9759 7.91504 47.5002C7.91504 42.0245 8.9541 36.8787 11.0322 32.0627C13.1104 27.2467 15.9307 23.0575 19.4932 19.495C23.0557 15.9325 27.2449 13.1122 32.0609 11.0341C36.8768 8.95593 42.0227 7.91687 47.4984 7.91687C52.9741 7.91687 58.1199 8.95593 62.9359 11.0341C67.7518 13.1122 71.9411 15.9325 75.5036 19.495C79.0661 23.0575 81.8864 27.2467 83.9645 32.0627C86.0426 36.8787 87.0817 42.0245 87.0817 47.5002C87.0817 52.9759 86.0426 58.1217 83.9645 62.9377C81.8864 67.7537 79.0661 71.9429 75.5036 75.5054C71.9411 79.0679 67.7518 81.8882 62.9359 83.9663C58.1199 86.0445 52.9741 87.0835 47.4984 87.0835Z" fill="#7AB2D3"/>
</g>
<defs>
<filter id="filter0_d_96_6251" x="-0.8" y="0" width="96.6" height="96.6" filterUnits="userSpaceOnUse" color-interpolation-filters="sRGB">
<feFlood flood-opacity="0" result="BackgroundImageFix"/>
<feColorMatrix in="SourceAlpha" type="matrix" values="0 0 0 0 0 0 0 0 0 0 0 0 0 0 0 0 0 0 127 0" result="hardAlpha"/>
<feOffset dy="0.8"/>
<feGaussianBlur stdDeviation="0.4"/>
<feComposite in2="hardAlpha" operator="out"/>
<feColorMatrix type="matrix" values="0 0 0 0 0 0 0 0 0 0 0 0 0 0 0 0 0 0 0.25 0"/>
<feBlend mode="normal" in2="BackgroundImageFix" result="effect1_dropShadow_96_6251"/>
<feBlend mode="normal" in="SourceGraphic" in2="effect1_dropShadow_96_6251" result="shape"/>
</filter>
</defs>
</svg>
