<svg width="120" height="120" viewBox="0 0 120 120" fill="none" xmlns="http://www.w3.org/2000/svg">
<path d="M29.25 85.5C33.5 82.25 38.25 79.6875 43.5 77.8125C48.75 75.9375 54.25 75 60 75C65.75 75 71.25 75.9375 76.5 77.8125C81.75 79.6875 86.5 82.25 90.75 85.5C93.6667 82.0833 95.9375 78.2083 97.5625 73.875C99.1875 69.5417 100 64.9167 100 60C100 48.9167 96.1042 39.4792 88.3125 31.6875C80.5208 23.8958 71.0833 20 60 20C48.9167 20 39.4792 23.8958 31.6875 31.6875C23.8958 39.4792 20 48.9167 20 60C20 64.9167 20.8125 69.5417 22.4375 73.875C24.0625 78.2083 26.3333 82.0833 29.25 85.5ZM60 65C55.0833 65 50.9375 63.3125 47.5625 59.9375C44.1875 56.5625 42.5 52.4167 42.5 47.5C42.5 42.5833 44.1875 38.4375 47.5625 35.0625C50.9375 31.6875 55.0833 30 60 30C64.9167 30 69.0625 31.6875 72.4375 35.0625C75.8125 38.4375 77.5 42.5833 77.5 47.5C77.5 52.4167 75.8125 56.5625 72.4375 59.9375C69.0625 63.3125 64.9167 65 60 65ZM60 110C53.0833 110 46.5833 108.688 40.5 106.062C34.4167 103.438 29.125 99.875 24.625 95.375C20.125 90.875 16.5625 85.5833 13.9375 79.5C11.3125 73.4167 10 66.9167 10 60C10 53.0833 11.3125 46.5833 13.9375 40.5C16.5625 34.4167 20.125 29.125 24.625 24.625C29.125 20.125 34.4167 16.5625 40.5 13.9375C46.5833 11.3125 53.0833 10 60 10C66.9167 10 73.4167 11.3125 79.5 13.9375C85.5833 16.5625 90.875 20.125 95.375 24.625C99.875 29.125 103.438 34.4167 106.062 40.5C108.688 46.5833 110 53.0833 110 60C110 66.9167 108.688 73.4167 106.062 79.5C103.438 85.5833 99.875 90.875 95.375 95.375C90.875 99.875 85.5833 103.438 79.5 106.062C73.4167 108.688 66.9167 110 60 110Z" fill="#FFCAE9"/>
</svg>
