<svg width="282" height="50" viewBox="0 0 282 50" fill="none" xmlns="http://www.w3.org/2000/svg">
<rect x="0.473354" y="0.473354" width="281.053" height="49.0533" rx="10.8871" fill="#7AB2D3"/>
<rect x="0.473354" y="0.473354" width="281.053" height="49.0533" rx="10.8871" stroke="#7AB2D3" stroke-width="0.946708"/>
<rect x="0.473354" y="0.473354" width="281.053" height="49.0533" rx="10.8871" stroke="#7AB2D3" stroke-opacity="0.2" stroke-width="0.946708"/>
<path d="M121.788 16.5043V23.1054H124.359V24.5661H121.788V33.0532H120.032V16.5043H121.788ZM117.462 18.2424C117.443 23.0314 115.335 27.3027 109.881 30.0023L108.901 28.634C113.052 26.5631 115.308 23.5676 115.668 19.7031H109.733V18.2424H117.462ZM138.985 16.5043V25.3982H137.228V16.5043H138.985ZM129.869 26.1933V28.0608H137.246V26.1933H138.985V32.8683H128.149V26.1933H129.869ZM129.869 31.426H137.246V29.4476H129.869V31.426ZM129.998 17.2624C132.531 17.2624 134.399 18.8341 134.399 21.1084C134.399 23.3827 132.531 24.9544 129.998 24.9359C127.465 24.9544 125.579 23.3827 125.579 21.1084C125.579 18.8341 127.465 17.2624 129.998 17.2624ZM129.998 18.7416C128.427 18.7231 127.299 19.7031 127.299 21.1084C127.299 22.5322 128.427 23.4937 129.998 23.4937C131.551 23.4937 132.679 22.5322 132.679 21.1084C132.679 19.7031 131.551 18.7231 129.998 18.7416ZM154.516 16.5043V23.2163H157.179V24.677H154.516V33.0717H152.778V16.5043H154.516ZM151.336 19.0929V20.5352H141.518V19.0929H145.604V16.7262H147.361V19.0929H151.336ZM146.492 21.7556C148.858 21.7556 150.597 23.3457 150.615 25.6016C150.597 27.8759 148.858 29.4476 146.492 29.4661C144.106 29.4476 142.368 27.8759 142.368 25.6016C142.368 23.3457 144.106 21.7556 146.492 21.7556ZM146.492 23.1978C145.086 23.1978 144.032 24.1778 144.051 25.6016C144.032 27.0438 145.086 28.0053 146.492 27.9868C147.897 28.0053 148.932 27.0438 148.932 25.6016C148.932 24.1778 147.897 23.1978 146.492 23.1978ZM171.75 16.5043V33.0717H169.974V16.5043H171.75ZM166.813 18.2794C166.813 23.1238 164.742 27.3397 159.065 30.0577L158.141 28.634C162.551 26.5353 164.695 23.5491 165.038 19.6846H158.936V18.2794H166.813Z" fill="white"/>
</svg>
