<svg width="106" height="54" viewBox="0 0 106 54" fill="none" xmlns="http://www.w3.org/2000/svg">
<g filter="url(#filter0_d_96_3714)">
<rect x="11" y="10" width="84" height="32" rx="11.3605" fill="#7AB2D3" shape-rendering="crispEdges"/>
<path d="M37.8176 20.5025H39.2088V27.3792H37.8176V20.5025ZM31.2853 27.9887H39.2088V32.454H31.2853V27.9887ZM37.8441 29.0885H32.6501V31.341H37.8441V29.0885ZM32.6766 21.0987C34.5316 21.0987 35.8831 22.2647 35.8831 23.9607C35.8831 25.6302 34.5316 26.8227 32.6766 26.8227C30.8216 26.8227 29.4568 25.6302 29.4568 23.9607C29.4568 22.2647 30.8216 21.0987 32.6766 21.0987ZM32.6766 22.2515C31.6033 22.2515 30.8083 22.9272 30.8083 23.9607C30.8083 24.9942 31.6033 25.6567 32.6766 25.6567C33.7498 25.6567 34.5316 24.9942 34.5316 23.9607C34.5316 22.9272 33.7498 22.2515 32.6766 22.2515ZM44.4945 21.483H45.634V23.4705C45.634 26.3987 44.3223 29.0885 42.1493 30.1485L41.3145 28.9957C43.249 28.1212 44.4945 25.7892 44.4945 23.4705V21.483ZM44.7595 21.483H45.8858V23.4705C45.8858 25.6965 47.118 27.9225 49.026 28.7705L48.2045 29.8835C46.0713 28.8765 44.7595 26.2927 44.7595 23.4705V21.483ZM49.9933 20.476H51.3845V32.613H49.9933V20.476ZM62.2618 20.476H63.653V32.613H62.2618V20.476ZM59.8768 24.8088H62.6328V25.935H59.8768V24.8088ZM56.551 22.2912H57.664V23.7885C57.664 26.5445 56.3523 29.2342 54.2853 30.281L53.4638 29.1812C55.332 28.2802 56.551 25.9747 56.551 23.7885V22.2912ZM56.8558 22.2912H57.9555V23.7885C57.9555 25.8555 59.1613 28.0682 61.0295 28.9427L60.2213 30.0292C58.141 29.0222 56.8558 26.4385 56.8558 23.7885V22.2912ZM53.9275 21.695H60.579V22.8212H53.9275V21.695ZM68.6472 21.8142H69.7867V22.6887C69.7867 24.9545 68.5545 26.9155 66.3815 27.6575L65.6925 26.5577C67.5872 25.9085 68.6472 24.345 68.6472 22.6887V21.8142ZM68.9122 21.8142H70.0385V22.6887C70.0385 24.186 71.0455 25.5905 72.9005 26.1867L72.238 27.2732C70.0915 26.5842 68.9122 24.7822 68.9122 22.6887V21.8142ZM66.0767 21.3505H72.5825V22.4635H66.0767V21.3505ZM73.8545 20.4892H75.2457V27.737H73.8545V20.4892ZM74.8615 23.4307H76.955V24.5835H74.8615V23.4307ZM71.3502 28.0152C73.828 28.0152 75.3782 28.8632 75.3782 30.2942C75.3782 31.7385 73.828 32.5865 71.3502 32.5865C68.8592 32.5865 67.309 31.7385 67.309 30.2942C67.309 28.8632 68.8592 28.0152 71.3502 28.0152ZM71.3502 29.115C69.6675 29.115 68.687 29.5257 68.687 30.2942C68.687 31.076 69.6675 31.5 71.3502 31.5C73.033 31.5 74.0002 31.076 74.0002 30.2942C74.0002 29.5257 73.033 29.115 71.3502 29.115Z" fill="white"/>
</g>
<defs>
<filter id="filter0_d_96_3714" x="0.680879" y="0.627587" width="104.638" height="52.6382" filterUnits="userSpaceOnUse" color-interpolation-filters="sRGB">
<feFlood flood-opacity="0" result="BackgroundImageFix"/>
<feColorMatrix in="SourceAlpha" type="matrix" values="0 0 0 0 0 0 0 0 0 0 0 0 0 0 0 0 0 0 127 0" result="hardAlpha"/>
<feOffset dy="0.946708"/>
<feGaussianBlur stdDeviation="5.15956"/>
<feComposite in2="hardAlpha" operator="out"/>
<feColorMatrix type="matrix" values="0 0 0 0 0 0 0 0 0 0 0 0 0 0 0 0 0 0 0.25 0"/>
<feBlend mode="normal" in2="BackgroundImageFix" result="effect1_dropShadow_96_3714"/>
<feBlend mode="normal" in="SourceGraphic" in2="effect1_dropShadow_96_3714" result="shape"/>
</filter>
</defs>
</svg>
