<svg width="282" height="50" viewBox="0 0 282 50" fill="none" xmlns="http://www.w3.org/2000/svg">
<rect x="0.473354" y="0.473354" width="281.053" height="49.0533" rx="10.8871" fill="#7AB2D3"/>
<rect x="0.473354" y="0.473354" width="281.053" height="49.0533" rx="10.8871" stroke="#7AB2D3" stroke-width="0.946708"/>
<rect x="0.473354" y="0.473354" width="281.053" height="49.0533" rx="10.8871" stroke="#7AB2D3" stroke-opacity="0.2" stroke-width="0.946708"/>
<path d="M122.713 16.5043V33.1087H120.956V23.9004H117.536V22.4582H120.956V16.5043H122.713ZM114.799 21.1639C114.799 23.9744 116.556 26.9883 119.107 28.1163L118.053 29.5215C116.14 28.597 114.66 26.6648 113.93 24.3997C113.19 26.8127 111.683 28.8744 109.77 29.8544L108.697 28.4861C111.23 27.2842 113.006 24.1408 113.024 21.1639V19.6107H109.363V18.1684H118.479V19.6107H114.799V21.1639ZM131.034 19.5552C131.034 21.6631 132.494 23.5861 135.009 24.3812L134.177 25.7495C132.291 25.1485 130.913 23.9004 130.183 22.3288C129.462 24.1408 128.01 25.5738 126.023 26.2672L125.117 24.8619C127.705 24.0114 129.259 21.8665 129.277 19.5737V19.1114H125.634V17.6877H134.602V19.1114H131.034V19.5552ZM138.263 16.5043V20.6092H140.667V22.0514H138.263V26.4521H136.507V16.5043H138.263ZM132.92 26.8589C136.34 26.8589 138.411 27.9868 138.411 29.9283C138.411 31.8883 136.34 33.0532 132.92 33.0347C129.462 33.0532 127.354 31.8883 127.354 29.9283C127.354 27.9868 129.462 26.8589 132.92 26.8589ZM132.92 28.2457C130.516 28.2457 129.092 28.8559 129.111 29.9283C129.092 31.0377 130.516 31.6479 132.92 31.6479C135.305 31.6479 136.692 31.0377 136.692 29.9283C136.692 28.8559 135.305 28.2457 132.92 28.2457ZM154.516 16.5043V23.2163H157.179V24.677H154.516V33.0717H152.778V16.5043H154.516ZM151.336 19.0929V20.5352H141.518V19.0929H145.604V16.7262H147.361V19.0929H151.336ZM146.492 21.7556C148.858 21.7556 150.597 23.3457 150.615 25.6016C150.597 27.8759 148.858 29.4476 146.492 29.4661C144.106 29.4476 142.368 27.8759 142.368 25.6016C142.368 23.3457 144.106 21.7556 146.492 21.7556ZM146.492 23.1978C145.086 23.1978 144.032 24.1778 144.051 25.6016C144.032 27.0438 145.086 28.0053 146.492 27.9868C147.897 28.0053 148.932 27.0438 148.932 25.6016C148.932 24.1778 147.897 23.1978 146.492 23.1978ZM171.75 16.5043V33.0717H169.974V16.5043H171.75ZM166.813 18.2794C166.813 23.1238 164.742 27.3397 159.065 30.0577L158.141 28.634C162.551 26.5353 164.695 23.5491 165.038 19.6846H158.936V18.2794H166.813Z" fill="white"/>
</svg>
