<svg width="15" height="15" viewBox="0 0 15 15" fill="none" xmlns="http://www.w3.org/2000/svg">
<path d="M1.20517 14.9181C0.918221 15.0513 0.645624 15.022 0.387375 14.8302C0.129125 14.639 0 14.3603 0 13.994V10.2725C0 10.0394 0.0573888 9.83123 0.172166 9.64806C0.286944 9.4649 0.444763 9.34835 0.645624 9.29839L6.88666 7.50008L0.645624 5.70177C0.444763 5.65182 0.286944 5.53527 0.172166 5.3521C0.0573888 5.16894 0 4.96081 0 4.72769V1.00619C0 0.639867 0.129125 0.360797 0.387375 0.168977C0.645624 -0.0221767 0.918221 -0.0511499 1.20517 0.0820583L14.462 6.57595C14.8207 6.75911 15 7.06716 15 7.50008C15 7.93301 14.8207 8.24105 14.462 8.42422L1.20517 14.9181Z" fill="#7AB2D3"/>
</svg>
