
<svg width="30" height="14" viewBox="0 0 30 14" fill="none" xmlns="http://www.w3.org/2000/svg">
<path d="M3.28789 13.17C3.04989 13.17 2.77222 13.1587 2.45489 13.136C2.14889 13.1133 1.89389 13.0793 1.68989 13.034V11.249C1.90522 11.317 2.14322 11.368 2.40389 11.402C2.66455 11.4247 2.93089 11.436 3.20289 11.436C3.96222 11.436 4.58555 11.3283 5.07289 11.113C5.56022 10.8977 5.94555 10.603 6.22889 10.229C6.52355 9.84367 6.73322 9.396 6.85789 8.886C6.99389 8.36467 7.07322 7.815 7.09589 7.237H6.99389C6.83522 7.49767 6.63122 7.73567 6.38189 7.951C6.14389 8.16633 5.85489 8.33633 5.51489 8.461C5.17489 8.58567 4.76122 8.648 4.27389 8.648C3.24255 8.648 2.40955 8.31933 1.77489 7.662C1.15155 7.00467 0.839887 6.07533 0.839887 4.874C0.839887 4.00133 1.00422 3.25333 1.33289 2.63C1.66155 2.00667 2.12622 1.53067 2.72689 1.202C3.33889 0.862 4.05289 0.691999 4.86889 0.691999C5.46955 0.691999 6.03055 0.805333 6.55189 1.032C7.07322 1.24733 7.52655 1.576 7.91189 2.018C8.30855 2.46 8.61455 3.021 8.82989 3.701C9.04522 4.381 9.15289 5.18 9.15289 6.098C9.15289 7.05 9.05655 7.951 8.86389 8.801C8.68255 9.651 8.37089 10.4047 7.92889 11.062C7.48689 11.7193 6.88622 12.235 6.12689 12.609C5.36755 12.983 4.42122 13.17 3.28789 13.17ZM4.85189 6.965C5.28255 6.965 5.65655 6.87433 5.97389 6.693C6.29122 6.50033 6.53489 6.26233 6.70489 5.979C6.88622 5.68433 6.97689 5.384 6.97689 5.078C6.97689 4.772 6.93155 4.466 6.84089 4.16C6.76155 3.84267 6.63689 3.55933 6.46689 3.31C6.29689 3.04933 6.08155 2.84533 5.82089 2.698C5.56022 2.53933 5.25422 2.46 4.90289 2.46C4.32489 2.46 3.85455 2.65833 3.49189 3.055C3.14055 3.44033 2.96489 4.03533 2.96489 4.84C2.96489 5.49733 3.11789 6.01867 3.42389 6.404C3.74122 6.778 4.21722 6.965 4.85189 6.965ZM10.3894 11.81C10.3894 11.2887 10.5311 10.926 10.8144 10.722C11.0977 10.5067 11.4434 10.399 11.8514 10.399C12.2481 10.399 12.5881 10.5067 12.8714 10.722C13.1547 10.926 13.2964 11.2887 13.2964 11.81C13.2964 12.3087 13.1547 12.6713 12.8714 12.898C12.5881 13.1133 12.2481 13.221 11.8514 13.221C11.4434 13.221 11.0977 13.1133 10.8144 12.898C10.5311 12.6713 10.3894 12.3087 10.3894 11.81ZM10.3894 4.959C10.3894 4.43767 10.5311 4.075 10.8144 3.871C11.0977 3.65567 11.4434 3.548 11.8514 3.548C12.2481 3.548 12.5881 3.65567 12.8714 3.871C13.1547 4.075 13.2964 4.43767 13.2964 4.959C13.2964 5.45767 13.1547 5.82033 12.8714 6.047C12.5881 6.26233 12.2481 6.37 11.8514 6.37C11.4434 6.37 11.0977 6.26233 10.8144 6.047C10.5311 5.82033 10.3894 5.45767 10.3894 4.959ZM19.5481 13V10.399H14.0911V8.699L19.5651 0.828H21.6731V8.631H23.2711V10.399H21.6731V13H19.5481ZM16.0801 8.631H19.5481V5.724C19.5481 5.418 19.5537 5.11767 19.5651 4.823C19.5764 4.52833 19.5877 4.25633 19.5991 4.007C19.6104 3.75767 19.6161 3.55367 19.6161 3.395H19.5481C19.4461 3.62167 19.3384 3.84267 19.2251 4.058C19.1117 4.27333 18.9871 4.47167 18.8511 4.653L16.0801 8.631ZM27.6186 13V5.452C27.6186 5.214 27.6186 4.97033 27.6186 4.721C27.6299 4.46033 27.6413 4.19967 27.6526 3.939C27.6639 3.67833 27.6753 3.429 27.6866 3.191C27.5166 3.361 27.3636 3.50833 27.2276 3.633C27.0916 3.75767 26.9273 3.89933 26.7346 4.058L25.4086 5.146L24.2866 3.735L27.9076 0.861999H29.7946V13H27.6186Z" fill="black"/>
</svg>
